<svg width="32" height="32" viewBox="0 0 32 32" fill="none" xmlns="http://www.w3.org/2000/svg">
  <rect width="32" height="32" rx="8" fill="#0a0a0b"/>
  <path d="M8 12C8 10.8954 8.89543 10 10 10H22C23.1046 10 24 10.8954 24 12V20C24 21.1046 23.1046 22 22 22H10C8.89543 22 8 21.1046 8 20V12Z" stroke="#f99100" stroke-width="2"/>
  <rect x="11" y="13" width="2" height="6" rx="1" fill="#f99100" fill-opacity="0.5"/>
  <rect x="15" y="13" width="2" height="6" rx="1" fill="#f99100" fill-opacity="0.5"/>
  <rect x="19" y="13" width="2" height="6" rx="1" fill="#f99100" fill-opacity="0.5"/>
  <path d="M12 10V8M16 10V8M20 10V8M12 22V24M16 22V24M20 22V24" stroke="#f99100" stroke-width="1.5" stroke-linecap="round"/>
</svg>